# xmcd CD database file
#
# Track frame offsets:
#	183
#	15928
#	34783
#
# Disc length: 663 seconds
#
# Revision: 1
# Processed by: cddbd v1.5.2PL0 Copyright (c) Steve Scherf et al.
# Submitted via: CDex 1.51
#
DISCID=14029503
DTITLE=Papermoon - Danzing Again
DYEAR=1993
DGENRE=JPop
TTITLE0=Danzing Again
TTITLE1=Weiter
TTITLE2=Times are changing
EXTD=YEAR: 1993
EXTT0=
EXTT1=
EXTT2=
PLAYORDER=
